<svg width="17" height="16" viewBox="0 0 17 16" fill="none" xmlns="http://www.w3.org/2000/svg">
<path d="M8.87505 0.0332031C4.45679 0.0332031 0.875 3.61499 0.875 8.03325C0.875 11.9959 3.75917 15.2777 7.5408 15.9131V9.70228H5.61095V7.46724H7.5408V5.81921C7.5408 3.90702 8.70871 2.86498 10.4148 2.86498C11.2319 2.86498 11.9341 2.92587 12.1379 2.95269V4.95144L10.9546 4.95201C10.027 4.95201 9.84818 5.39272 9.84818 6.03966V7.46609H12.0616L11.7729 9.70113H9.84818V15.9666C13.8064 15.4848 16.875 12.1195 16.875 8.03096C16.875 3.61499 13.2932 0.0332031 8.87505 0.0332031Z" fill="black"/>
</svg>
