<svg width="17" height="16" viewBox="0 0 17 16" fill="none" xmlns="http://www.w3.org/2000/svg">
<path d="M14.9711 0H1.27893C0.641602 0 0.125 0.516602 0.125 1.15393V14.8461C0.125 15.4834 0.641602 16 1.27893 16H14.9711C15.6084 16 16.125 15.4834 16.125 14.8461V1.15393C16.125 0.516602 15.6084 0 14.9711 0V0ZM5.80029 12.0938H3.85193V6.23206H5.80029V12.0938ZM4.82617 5.43164H4.81348C4.15967 5.43164 3.73682 4.98157 3.73682 4.41907C3.73682 3.84387 4.17261 3.40625 4.83911 3.40625C5.50562 3.40625 5.91577 3.84387 5.92847 4.41907C5.92847 4.98157 5.50562 5.43164 4.82617 5.43164ZM12.8257 12.0938H10.8776V8.95789C10.8776 8.1698 10.5955 7.63232 9.8905 7.63232C9.35229 7.63232 9.03174 7.99487 8.89087 8.34485C8.83936 8.47009 8.82678 8.64514 8.82678 8.82031V12.0938H6.87854C6.87854 12.0938 6.90405 6.78198 6.87854 6.23206H8.82678V7.06201C9.08569 6.6626 9.54895 6.09448 10.5826 6.09448C11.8645 6.09448 12.8257 6.93225 12.8257 8.73267V12.0938Z" fill="black"/>
</svg>
