<svg width="17" height="13" viewBox="0 0 17 13" fill="none" xmlns="http://www.w3.org/2000/svg">
<path d="M16.625 0.506521C15.9286 0.944564 15.1574 1.2796 14.3414 1.49872C13.9034 1.04964 13.3212 0.731349 12.6738 0.586886C12.0263 0.442424 11.3446 0.478763 10.7211 0.690987C10.0975 0.903212 9.56205 1.28108 9.18717 1.77349C8.81229 2.26591 8.61605 2.8491 8.625 3.4442V4.09269C7.34692 4.12224 6.08047 3.86949 4.93846 3.35694C3.79645 2.84439 2.81432 2.08796 2.07955 1.15501C2.07955 1.15501 -0.829545 6.99146 5.71591 9.58543C4.21811 10.492 2.43384 10.9466 0.625 10.8824C7.17045 14.1249 15.1705 10.8824 15.1705 3.42474C15.1698 3.24411 15.1503 3.06392 15.1123 2.88649C15.8545 2.23378 16.3783 1.40969 16.625 0.506521Z" fill="black"/>
</svg>
